<?xml version="1.0" encoding="UTF-8" standalone="no"?><!DOCTYPE svg PUBLIC "-//W3C//DTD SVG 1.1//EN" "http://www.w3.org/Graphics/SVG/1.1/DTD/svg11.dtd"><svg width="100%" height="100%" viewBox="0 0 3750 12917" version="1.1" xmlns="http://www.w3.org/2000/svg" xmlns:xlink="http://www.w3.org/1999/xlink" xml:space="preserve" style="fill-rule:evenodd;clip-rule:evenodd;stroke-linejoin:round;stroke-miterlimit:1.41421;"><path d="M1751.66,8180.48c2.334,29.019 0.736,54.473 18.444,72.793c2.454,-31.6 -2.338,-66.518 -13.4,-95.293c-5.292,6.394 -7.01,14.016 -5.044,22.5ZM3259.35,12264.3c18.436,35.042 98.731,168.45 151.969,150.498c0.743,-8.728 1.231,-17.585 1.846,-26.437c-10.207,-66.151 -39.965,-113.366 -88.407,-158.367c-8.973,-8.361 -108.322,-88.651 -107.587,-95.905c-3.321,31.353 29.39,105.373 42.179,130.211l0,0ZM363.36,11831.1c0,0 72.545,-70.575 142.876,-83.364c-0.368,46.6 -94.43,97.628 -142.876,83.364ZM672.951,11649.7c0,0 30.002,-53.366 70.335,-44.881c1.967,26.437 -34.434,49.305 -70.335,59.756l0,-14.875ZM1548.27,18.053c181.722,-19.671 226.847,82.876 384.354,126.522c151.117,41.928 300.016,163.163 344.278,310.343c4.06,13.4 43.406,216.281 40.089,227.347c-21.889,71.07 -38.49,109.797 10.199,165.62c69.72,80.535 20.295,222.675 -5.163,309.728c-13.277,45.86 -38.731,97.871 -74.508,129.843c-56.191,49.306 -42.175,28.648 -42.175,124.429c85.826,40.576 238.905,-95.538 306.53,-43.279c11.802,6.023 -0.855,135.251 0,130.211c-14.875,116.931 -24.219,201.893 -15.123,322.393c3.565,44.753 -1.598,91.6 -3.317,135.742c-1.598,52.255 24.711,9.588 40.697,34.426c30.494,47.095 151.233,42.667 191.686,99.966c32.711,46.475 205.342,76.477 251.69,62.825c28.771,52.383 101.44,39.842 146.812,63.449c27.664,13.648 126.89,84.103 101.928,127.997c2.214,-3.813 78.816,134.635 88.04,155.909c7.989,18.2 50.416,99.102 55.332,101.192c41.56,20.167 -0.983,74.76 21.641,92.956c-14.148,48.566 49.545,147.916 20.039,192.673c-13.037,19.671 17.58,190.459 23.727,215.173c14.268,67.01 51.4,149.023 38.367,215.665c-19.551,105.005 35.653,217.144 17.213,330.873c-7.873,47.343 18.816,96.153 8.728,140.786c-11.925,47.583 26.194,102.671 3.078,151.481c-19.551,41.312 -1.351,59.389 11.43,102.791c-7.002,2.462 -7.865,1.97 -12.781,4.304c7.002,28.156 -6.395,158.491 -12.917,150.87c34.306,39.341 -27.54,77.464 -1.966,124.432c-28.028,6.518 -43.279,234.352 -48.322,259.067c-27.293,135.251 -161.936,265.338 -214.438,404.402c-16.35,46.479 -52.375,99.353 -49.306,151.732c-7.993,59.504 50.049,150.741 68.001,205.582c37.987,115.947 73.652,232.874 107.459,350.176c59.76,205.214 114.725,411.659 175.22,616.506c60.368,202.508 99.346,420.264 172.259,617.485c-118.533,37.747 -201.162,51.763 -320.922,90.249c-20.402,6.639 -171.883,41.313 -170.044,49.797c21.513,87.177 -50.776,28.156 -82.501,72.789c-58.657,-4.548 -205.214,-29.506 -251.322,-2.702c-122.222,71.435 -63.325,184.556 -61.479,302.222c0.983,66.767 -36.396,133.165 -19.919,199.683c21.518,87.177 54.837,174.721 79.671,261.406c62.342,216.896 81.154,457.519 64.061,683.144c-7.618,101.931 5.171,203.247 -8.361,305.179c-15.858,111.276 28.284,155.785 55.452,259.683c48.202,184.188 58.777,385.466 94.558,574.326c69.72,368.625 200.538,744.994 212.344,1129.48c4.428,156.157 19.671,400.593 -113.246,509.039c-62.094,50.536 51.52,49.061 73.9,83.244c44.39,67.625 49.058,157.259 15.738,229.433c-32.827,70.699 -35.785,108.202 -81.397,168.574c-47.091,61.97 3.077,83.735 13.157,151.972c23.112,163.286 234.968,195.259 252.8,364.568c6.147,57.542 -37.995,61.355 -70.454,92.216c-12.17,11.682 67.377,136.114 74.755,153.943c20.662,52.87 -37.995,126.642 -68.241,52.622c-6.147,-14.507 -37.867,-141.274 -68.241,-133.9c0,78.696 49.557,180.871 7.625,252.309c-73.648,125.783 -210.009,76.478 -317.844,108.938c-182.714,32.216 -501.293,21.517 -477.438,-218.371c4.3,-42.787 24.227,-75.614 31.109,-114.84c8.361,-46.968 -56.803,-69.592 -28.775,-116.439c63.94,-107.955 -48.075,-277.879 -56.683,-391.617c-7.745,-105.373 47.587,-201.401 25.826,-309.604c-5.532,-26.924 -82.629,-20.286 -98.243,-46.843c-32.956,-55.084 17.58,-82.137 45.612,-121.235c25.942,-36.396 -120.248,-158.738 -156.764,-194.887c-86.441,-85.702 -121.974,-234.109 -112.502,-353.745c10.694,-134.392 78.068,-264.603 157.499,-369.976c101.072,-136.357 11.438,-253.78 -36.388,-386.329c-48.942,-134.391 -65.907,-195.87 -174.477,-286.731c-126.77,-106.112 -128.001,-217.755 -169.193,-369.856c-39.586,-146.441 -77.09,-314.151 -82.625,-465.756c-5.779,-146.932 -8.848,-339.114 -52.011,-480.635c-3.193,-22.133 -5.407,-83.488 -19.299,-106.971c41.312,69.959 -1.231,319.93 -20.294,385.709c-43.527,150.869 -44.75,299.153 -1.104,453.343c54.349,196.973 41.069,425.427 13.037,625.602c-30.865,210.621 -101.568,440.306 -72.549,656.707c11.686,87.544 100.581,140.17 109.305,247.389c9.352,114.717 21.765,214.926 7.138,329.523c-11.806,91.968 36.76,156.276 -27.172,249.971c-60.864,89.263 -1.847,198.939 -1.231,309.971c1.103,271.241 -262.385,291.036 -483.345,308.249c-275.909,21.274 -521.7,146.813 -798.844,167.347c-96.888,7.378 -528.094,-12.297 -497.237,-177.918c12.789,-68.245 56.931,-152.588 129.844,-165.624c101.44,-18.073 120.371,-112.75 202.756,-163.039c102.791,-63.201 203.859,-87.544 277.883,-184.928c73.033,-97.379 164.513,-117.178 258.084,-177.302c0,-14.14 55.696,-115.58 62.214,-130.087c25.574,-59.632 11.311,-122.218 40.577,-185.911c23.604,-52.011 -100.209,-106.604 -139.683,-147.548c-78.072,-81.394 -37.623,-166.112 -48.566,-268.044c-11.062,-104.513 -42.175,-213.575 -83.855,-309.847c-53.362,-122.958 -11.926,-285.013 -27.668,-415.964c-11.306,-93.69 87.672,-161.931 161.444,-199.311c94.678,-48.198 49.797,-90.493 17.829,-174.596c-90.002,-236.815 -142.996,-489.856 -168.083,-741.426c-22.62,-228.945 -77.337,-442.768 -125.659,-668.269c-56.926,-266.692 -66.642,-539.164 -111.151,-807.452c-15.863,-94.062 -15.123,-192.553 -33.815,-284.277c-13.768,-66.027 0.615,-189.472 -34.55,-246.279c-18.2,-28.527 -14.512,-63.077 -51.272,-85.458c-96.52,-58.281 -84.227,48.814 -128.244,123.945c-32.828,-77.956 -141.154,-70.335 -135.127,-171.895c7.377,-123.201 60.491,-260.298 109.677,-366.163c17.948,-43.158 58.897,-60.863 74.631,-108.941c9.715,-30.002 -41.928,-165.377 -55.332,-204.967c-30.246,-92.955 -60.612,-132.796 -48.934,-237.678c5.655,-52.622 -19.303,-74.631 -40.944,-110.168c-34.794,-57.538 -70.827,-41.436 -67.382,-134.388c1.599,-39.593 -7.989,-139.307 2.09,-168.697c26.929,-78.568 -1.474,-189.844 49.921,-283.786c22.872,-41.68 31.233,-157.26 29.267,-212.468c-1.599,-37.991 -5.044,-135.619 34.178,-160.949c39.222,-25.45 -55.943,-68.604 7.378,-107.339c-21.15,-90.741 18.324,-205.705 67.137,-295.34c9.96,-17.828 3.933,-97.503 11.926,-127.137c3.813,-13.768 42.911,-96.029 56.927,-108.942c48.937,-44.877 37.256,-212.344 52.626,-268.411c17.949,-64.92 54.101,-86.805 61.475,-142.753c-20.039,-7.129 31.848,-169.309 42.179,-188.488c25.942,-47.711 14.012,-123.697 25.942,-175.092c18.935,-79.432 35.041,-166.608 53.729,-248.001c14.512,-63.445 15.867,-180.38 56.072,-223.411c22.376,-23.735 9.835,-86.321 33.563,-124.188c47.834,-77.957 94.925,-129.6 170.788,-173.122c52.75,-30.985 110.784,-45.005 169.68,-70.331c93.691,-40.333 -24.59,-104.018 -79.427,-114.473c-79.187,-15.371 -154.314,-68.98 -216.528,-118.285c-98.491,-78.077 -73.652,-96.517 15.123,-164.39c118.161,-90.617 228.578,-189.967 347.475,-279.729c73.404,-55.328 227.838,-118.653 209.886,-217.632c-29.023,-159.965 -142.629,-307.141 -221.936,-439.567c-22.748,-41.927 -5.044,-113.485 -19.183,-155.909c-18.44,-52.258 -62.214,-95.537 -59.265,-162.179c6.638,-158.123 15.495,-274.314 104.146,-412.394c20.042,-30.986 18.196,-53.734 37.256,-82.133c15.862,-23.12 46.351,18.564 56.439,-21.641c14.139,-58.778 68.976,-82.505 86.684,-131.071c19.056,-53.853 58.522,-70.822 109.306,-82.137c25.825,-5.779 53.238,0.492 79.183,-3.812c41.312,-7.254 64.184,-57.914 109.066,-62.462l0,0Z" style="fill:#000;"/></svg>