<?xml version="1.0" encoding="iso-8859-1"?>
<!-- Generator: Adobe Illustrator 19.0.0, SVG Export Plug-In . SVG Version: 6.00 Build 0)  -->
<svg version="1.1" id="Layer_1" xmlns="http://www.w3.org/2000/svg" xmlns:xlink="http://www.w3.org/1999/xlink" x="0px" y="0px"
	 viewBox="0 0 512 512" style="enable-background:new 0 0 512 512;" xml:space="preserve">
<g>
	<path style="fill:#FFBE0D;" d="M427.565,330.867v53.054c0,12.042,9.763,21.805,21.805,21.805c12.042,0,21.805-9.763,21.805-21.805
		v-53.054H427.565z"/>
	<path style="fill:#FFBE0D;" d="M345.179,330.867v53.054c0,12.042,9.763,21.805,21.805,21.805s21.805-9.763,21.805-21.805v-53.054
		H345.179z"/>
	<path style="fill:#FFBE0D;" d="M262.795,330.867v53.054c0,12.042,9.763,21.805,21.805,21.805s21.805-9.763,21.805-21.805v-53.054
		H262.795z"/>
</g>
<g>
	<path style="fill:#FFC72D;" d="M120.901,330.867H99.097v53.054c0,12.042,9.763,21.805,21.805,21.805
		c12.042,0,21.805-9.763,21.805-21.805v-53.054H120.901z"/>
	<path style="fill:#FFC72D;" d="M16.713,330.867v53.054c0,12.042,9.763,21.805,21.805,21.805s21.805-9.763,21.805-21.805v-53.054
		H16.713z"/>
</g>
<path style="fill:#FFE49C;" d="M507.526,282.097c-2.701-5.556-6.572-10.517-11.384-14.536H0v14.536v48.77
	c0,8.029,6.508,14.536,14.536,14.536h106.365h347.011C500.452,345.403,521.71,311.267,507.526,282.097z"/>
<path style="fill:#FFC72D;" d="M507.526,282.097c-2.701-5.556-6.572-10.517-11.384-14.536H120.901v77.843h347.011
	C500.452,345.403,521.71,311.267,507.526,282.097z"/>
<path style="fill:#80D0E1;" d="M490.543,263.567c-9.543-5.716-248.2-148.64-262.648-157.292H172.72
	c0,22.3-22.671,40.657-51.818,43.059c-34.812,2.868-64.804-17.373-64.804-43.059H14.536C6.508,106.275,0,112.783,0,120.811
	c0,42.057,0,147.721,0,161.287h120.901h386.623C503.842,274.525,498.007,268.037,490.543,263.567z"/>
<path style="fill:#48AEE2;" d="M490.543,263.567c-10.174-6.094-233.285-139.706-243.8-146.005l26.672,15.973l-45.52-27.26H172.72
	c0,22.3-22.671,40.657-51.818,43.059v132.765h386.623C503.842,274.525,498.007,268.037,490.543,263.567z"/>
<g>
	<path style="fill:#3494C7;" d="M333.897,169.757l-29.701,29.701c-8.515,8.515-8.515,22.321,0,30.836
		c8.514,8.515,22.321,8.517,30.836,0c36.785-36.785,34.876-34.521,36.84-37.796L333.897,169.757z"/>
	<path style="fill:#3494C7;" d="M270.018,131.501L253.13,148.39c-8.515,8.515-8.515,22.321,0,30.836
		c8.514,8.515,22.321,8.517,30.836,0c22.753-22.753,22.119-21.8,24.027-24.984L270.018,131.501z"/>
</g>
<g>
</g>
<g>
</g>
<g>
</g>
<g>
</g>
<g>
</g>
<g>
</g>
<g>
</g>
<g>
</g>
<g>
</g>
<g>
</g>
<g>
</g>
<g>
</g>
<g>
</g>
<g>
</g>
<g>
</g>
</svg>
