<?xml version="1.0" encoding="iso-8859-1"?>
<!-- Generator: Adobe Illustrator 19.0.0, SVG Export Plug-In . SVG Version: 6.00 Build 0)  -->
<svg version="1.1" id="Capa_1" xmlns="http://www.w3.org/2000/svg" xmlns:xlink="http://www.w3.org/1999/xlink" x="0px" y="0px"
	 viewBox="0 0 360 360" style="enable-background:new 0 0 360 360;" xml:space="preserve">
<g id="XMLID_875_">
	<polygon id="XMLID_879_" style="fill:#6DA8D6;" points="320,0 290,0 290,145 70,145 70,0 40,0 40,175 165,175 165,350 195,350 
		195,175 320,175 	"/>
	<rect id="XMLID_45_" x="152.5" y="240" style="fill:#DEDFE8;" width="55" height="40"/>
	<rect id="XMLID_44_" x="152.5" y="280" style="fill:#D77258;" width="55" height="40"/>
	<rect id="XMLID_43_" x="152.5" y="320" style="fill:#DEDFE8;" width="55" height="40"/>
	<polygon id="XMLID_882_" style="fill:#2974A8;" points="290,0 290,145 180,145 180,350 195,350 195,175 320,175 320,0 	"/>
	<rect id="XMLID_885_" x="180" y="320" style="fill:#C9C7D7;" width="27.5" height="40"/>
	<rect id="XMLID_888_" x="180" y="280" style="fill:#D14F4E;" width="27.5" height="40"/>
	<rect id="XMLID_891_" x="180" y="240" style="fill:#C9C7D7;" width="27.5" height="40"/>
</g>
<g>
</g>
<g>
</g>
<g>
</g>
<g>
</g>
<g>
</g>
<g>
</g>
<g>
</g>
<g>
</g>
<g>
</g>
<g>
</g>
<g>
</g>
<g>
</g>
<g>
</g>
<g>
</g>
<g>
</g>
</svg>
